<svg width="60" height="60" viewBox="0 0 60 60" fill="none" xmlns="http://www.w3.org/2000/svg">
<g clip-path="url(#clip0_13_19)">
<mask id="mask0_13_19" style="mask-type:luminance" maskUnits="userSpaceOnUse" x="0" y="0" width="60" height="60">
<path d="M60 0H0V60H60V0Z" fill="white"/>
</mask>
<g mask="url(#mask0_13_19)">
<path d="M30 0C55 0 60 5 60 30C60 55 55 60 30 60C5 60 0 55 0 30C0 5 5 0 30 0Z" fill="#FF462D"/>
<path d="M32.8202 20.625L25.9668 21.2247L20.3543 30.1113L20.762 21.68L14.5548 22.223L9.375 36.4543L13.9932 36.0502L17.1755 27.3067L16.6263 35.8198L20.5367 35.4777L26.2048 26.518L23.023 35.2602L27.6412 34.8562L32.8202 20.625Z" fill="white"/>
<path d="M50.625 23.5453L43.7717 24.1449L38.159 33.0317L38.5669 24.6003L32.3595 25.1432L27.1797 39.3747L31.798 38.9705L34.9804 30.2269L34.4312 38.7402L38.3414 38.398L44.0097 29.4383L40.8279 38.1805L45.446 37.7765L50.625 23.5453Z" fill="white"/>
</g>
</g>
<defs>
<clipPath id="clip0_13_19">
<rect width="60" height="60" fill="white"/>
</clipPath>
</defs>
</svg>
