<svg width="24" height="24" viewBox="0 0 24 24" fill="none" xmlns="http://www.w3.org/2000/svg">
<g clip-path="url(#clip0_15_71)">
<path d="M14.7 13.5C13.6 11.5 13.259 11 12 11C10.741 11 10.264 11.755 9.16401 13.747C8.22201 15.45 6.31801 15.592 5.84301 17.038C5.74601 17.303 5.69801 17.715 5.70001 18C5.70001 19.176 6.48701 20 7.50001 20C8.75901 20 10.5 19 12 19C13.5 19 15.241 20 16.5 20C17.513 20 18.3 19.177 18.3 18C18.3 17.715 18.251 17.303 18.154 17.038C17.679 15.587 15.642 15.203 14.7 13.5Z" stroke="black" stroke-linecap="round" stroke-linejoin="round"/>
<path d="M20.1879 8.082C20.0595 8.0277 19.9214 7.99981 19.7819 8H19.7669C19.0319 8.012 18.2069 8.75 17.7739 9.866C17.2549 11.201 17.4939 12.566 18.3119 12.918C18.4409 12.973 18.5789 13 18.7179 13C19.4569 13 20.2929 12.258 20.7289 11.134C21.2449 9.799 21.0009 8.434 20.1879 8.082Z" stroke="black" stroke-linecap="round" stroke-linejoin="round"/>
<path d="M9.47407 9C9.52907 9 9.58307 9 9.63707 8.989C10.5811 8.861 11.1701 7.643 10.9571 6.267C10.7541 4.97 9.91007 4 9.02507 4C8.97007 4 8.91607 4 8.86207 4.011C7.91807 4.139 7.32907 5.357 7.54207 6.733C7.74607 8.026 8.59007 9 9.47507 9" stroke="black" stroke-linecap="round" stroke-linejoin="round"/>
<path d="M16.4559 6.733C16.6699 5.357 16.0809 4.139 15.1359 4.011C15.0822 4.00357 15.0281 3.99989 14.9739 4C14.0889 4 13.2459 4.97 13.0439 6.267C12.8299 7.643 13.4189 8.861 14.3639 8.989C14.4179 8.996 14.4719 9 14.5259 9C15.4109 9 16.2559 8.026 16.4559 6.733Z" stroke="black" stroke-linecap="round" stroke-linejoin="round"/>
<path d="M5.69007 12.918C6.50607 12.566 6.74407 11.199 6.22607 9.866C5.79007 8.742 4.95507 8 4.21707 8C4.07707 8 3.94007 8.027 3.81007 8.082C2.99407 8.434 2.75607 9.801 3.27407 11.134C3.71007 12.258 4.54507 13 5.28307 13C5.42307 13 5.56007 12.973 5.69007 12.918Z" stroke="black" stroke-linecap="round" stroke-linejoin="round"/>
</g>
<defs>
<clipPath id="clip0_15_71">
<rect width="24" height="24" fill="white"/>
</clipPath>
</defs>
</svg>
