<svg width="60" height="60" viewBox="0 0 60 60" fill="none" xmlns="http://www.w3.org/2000/svg">
<path d="M0 28.17C0 18.306 0 13.38 1.92 9.612C3.606 6.3 6.3 3.606 9.612 1.92C13.38 0 18.306 0 28.17 0H31.836C41.694 0 46.62 0 50.388 1.92C53.7 3.606 56.394 6.3 58.08 9.612C60 13.38 60 18.306 60 28.17V31.836C60 41.694 60 46.626 58.08 50.394C56.394 53.7 53.7 56.394 50.388 58.08C46.62 60 41.694 60 31.83 60H28.164C18.306 60 13.374 60 9.606 58.08C6.3 56.394 3.606 53.7 1.92 50.388C0 46.62 0 41.694 0 31.83V28.17Z" fill="url(#paint0_linear_8_9)"/>
<path d="M45.66 21.174C43.512 21.174 41.568 21.822 39.912 22.938V12.78H35.328V31.5C35.328 37.194 39.96 41.778 45.63 41.778C51.3 41.778 55.986 37.224 55.986 31.446C55.992 25.674 51.408 21.174 45.66 21.174ZM24.858 32.826L20.664 21.9H17.454L13.236 32.826L9.01198 21.9H4.01398L11.394 41.112H14.604L19.032 29.67L23.484 41.112H26.694L34.05 21.9H29.076L24.858 32.826ZM45.636 37.2C42.528 37.2 39.912 34.716 39.912 31.476C39.912 28.236 42.372 25.782 45.66 25.782C48.948 25.782 51.408 28.344 51.408 31.476C51.408 34.614 48.792 37.2 45.636 37.2Z" fill="white"/>
<defs>
<linearGradient id="paint0_linear_8_9" x1="11.8796" y1="60.2006" x2="48.6979" y2="-1.16316" gradientUnits="userSpaceOnUse">
<stop stop-color="#6F01FB"/>
<stop offset="1" stop-color="#FF49D7"/>
</linearGradient>
</defs>
</svg>
