<svg width="24" height="24" viewBox="0 0 24 24" fill="none" xmlns="http://www.w3.org/2000/svg">
<g clip-path="url(#clip0_15_65)">
<path d="M10 5H14V3C14 2.73478 13.8946 2.48043 13.7071 2.29289C13.5196 2.10536 13.2652 2 13 2H11C10.7348 2 10.4804 2.10536 10.2929 2.29289C10.1054 2.48043 10 2.73478 10 3V5Z" stroke="black" stroke-linecap="round" stroke-linejoin="round"/>
<path d="M14 3.5C14 5.126 14.507 6.712 15.45 8.037L15.5 8.107C16.4758 9.4777 17.0001 11.1184 17 12.801V19C17 19.5304 16.7893 20.0391 16.4142 20.4142C16.0391 20.7893 15.5304 21 15 21H9C8.46957 21 7.96086 20.7893 7.58579 20.4142C7.21071 20.0391 7 19.5304 7 19V12.8C7 11.118 7.524 9.478 8.5 8.107L8.55 8.037C9.49317 6.71215 10 5.12629 10 3.5" stroke="black" stroke-linecap="round" stroke-linejoin="round"/>
<path d="M7 14.803C7.4 14.631 7.74568 14.3534 8 14C8.22717 13.6835 8.52797 13.4271 8.87642 13.2528C9.22488 13.0786 9.6105 12.9918 10 13C10.3895 12.9918 10.7751 13.0786 11.1236 13.2528C11.472 13.4271 11.7728 13.6835 12 14C12.2272 14.3165 12.528 14.5729 12.8764 14.7471C13.2249 14.9214 13.6105 15.0081 14 15C14.3895 15.0081 14.7751 14.9214 15.1236 14.7471C15.472 14.5729 15.7728 14.3165 16 14C16.2541 13.6458 16.5998 13.3675 17 13.195" stroke="black" stroke-linecap="round" stroke-linejoin="round"/>
</g>
<defs>
<clipPath id="clip0_15_65">
<rect width="24" height="24" fill="white"/>
</clipPath>
</defs>
</svg>
