<svg width="24" height="24" viewBox="0 0 24 24" fill="none" xmlns="http://www.w3.org/2000/svg">
<g clip-path="url(#clip0_15_113)">
<path d="M8 21H16C16.2652 21 16.5196 20.8946 16.7071 20.7071C16.8946 20.5196 17 20.2652 17 20V10C17 9.20435 16.6839 8.44129 16.1213 7.87868C15.5587 7.31607 14.7956 7 14 7H10C9.20435 7 8.44129 7.31607 7.87868 7.87868C7.31607 8.44129 7 9.20435 7 10V20C7 20.2652 7.10536 20.5196 7.29289 20.7071C7.48043 20.8946 7.73478 21 8 21Z" stroke="black" stroke-linecap="round" stroke-linejoin="round"/>
<path d="M10 14H14" stroke="black" stroke-linecap="round" stroke-linejoin="round"/>
<path d="M12 12V16" stroke="black" stroke-linecap="round" stroke-linejoin="round"/>
<path d="M10 7V4C10 3.73478 10.1054 3.48043 10.2929 3.29289C10.4804 3.10536 10.7348 3 11 3H13C13.2652 3 13.5196 3.10536 13.7071 3.29289C13.8946 3.48043 14 3.73478 14 4V7" stroke="black" stroke-linecap="round" stroke-linejoin="round"/>
</g>
<defs>
<clipPath id="clip0_15_113">
<rect width="24" height="24" fill="white"/>
</clipPath>
</defs>
</svg>
