<svg width="72" height="72" viewBox="0 0 72 72" fill="none" xmlns="http://www.w3.org/2000/svg">
<path d="M15 0H57C65.284 0 72 6.716 72 15V57C72 65.284 65.284 72 57 72H15C6.716 72 0 65.284 0 57V15C0 6.716 6.716 0 15 0Z" fill="#2962FF"/>
<path d="M30.998 40.174H25.852L32.422 31.482C32.566 31.292 32.526 31.012 32.334 30.87C32.262 30.814 32.166 30.782 32.072 30.782H22.568C21.732 30.782 21.05 31.466 21.05 32.3C21.05 33.134 21.734 33.818 22.568 33.818H26.838L20.246 42.518C20.094 42.708 20.134 42.98 20.326 43.13C20.406 43.194 20.5 43.226 20.596 43.218H30.99C31.826 43.178 32.47 42.462 32.43 41.62C32.39 40.84 31.77 40.22 30.99 40.18V40.172L30.998 40.174ZM64.208 30.782C63.372 30.782 62.69 31.466 62.69 32.3V37.398L54.482 30.884C54.3 30.732 54.02 30.756 53.87 30.948C53.806 31.028 53.774 31.122 53.774 31.226V41.7C53.774 42.536 54.458 43.218 55.292 43.218C56.126 43.218 56.81 42.542 56.81 41.7V36.602L65.018 43.124C65.208 43.276 65.488 43.244 65.638 43.052C65.702 42.972 65.734 42.878 65.734 42.782V32.3C65.728 31.458 65.052 30.782 64.208 30.782ZM42.49 40.46C39.014 40.46 36.422 38.63 36.422 36.992C36.422 35.354 39.022 33.524 42.49 33.524C45.966 33.524 48.558 35.354 48.558 36.992C48.558 38.63 45.972 40.46 42.49 40.46ZM42.49 30.486C37.464 30.486 33.384 33.396 33.384 36.992C33.384 40.588 37.464 43.498 42.49 43.498C47.516 43.498 51.596 40.588 51.596 36.992C51.596 33.396 47.516 30.486 42.49 30.486ZM12.594 40.468C10.678 40.468 9.11802 38.918 9.11802 37C9.11802 35.082 10.668 33.524 12.586 33.524C14.504 33.524 16.062 35.074 16.062 36.992V37C16.062 38.91 14.512 40.46 12.594 40.468ZM12.594 30.486C9.00002 30.486 6.08802 33.396 6.08002 36.992C6.08002 40.586 8.99002 43.498 12.586 43.506C16.18 43.506 19.092 40.596 19.1 37V36.992C19.092 33.398 16.182 30.486 12.594 30.486Z" fill="white"/>
</svg>
